<svg width="128" height="128" viewBox="0 0 128 128" xmlns="http://www.w3.org/2000/svg">
  <!-- Background gradient -->
  <defs>
    <linearGradient id="grad1" x1="0%" y1="0%" x2="100%" y2="100%">
      <stop offset="0%" style="stop-color:#22d3ee;stop-opacity:1" />
      <stop offset="100%" style="stop-color:#0891b2;stop-opacity:1" />
    </linearGradient>
  </defs>

  <!-- Background circle -->
  <circle cx="64" cy="64" r="60" fill="url(#grad1)"/>

  <!-- Book icon -->
  <g transform="translate(32, 32)">
    <path d="M32 8.253v52m0-52C28.832 5.477 24.492 4 20 4S11.168 5.477 8 8.253v52C11.168 57.477 15.508 56 20 56s8.832 1.477 12 4.253m0-52C35.168 5.477 39.508 4 44 4s8.832 1.477 12 4.253v52C52.832 57.477 48.492 56 44 56s-8.832 1.477-12 4.253"
          stroke="white"
          stroke-width="4"
          stroke-linecap="round"
          stroke-linejoin="round"
          fill="none"/>
  </g>
</svg>
